<svg xmlns="http://www.w3.org/2000/svg" viewBox="0 0 231.54 70.63"><g id="레이어_2" data-name="레이어 2"><g id="레이어_1-2" data-name="레이어 1"><path d="M219.21,23.15a27.75,27.75,0,0,0-26.06,0,23.25,23.25,0,0,0-9.08,9.08,26.23,26.23,0,0,0-3.26,13,21.09,21.09,0,0,0,.93,6.34,16,16,0,0,0,2.68,5.18h10.12a16.86,16.86,0,0,1-3.95-11.52A16.54,16.54,0,0,1,195,33.39a15.74,15.74,0,0,1,22.34,0,16.58,16.58,0,0,1,4.42,11.87,17.05,17.05,0,0,1-4.36,12A14.61,14.61,0,0,1,206.18,62h-45a30.25,30.25,0,0,0,8-11.7A42.13,42.13,0,0,0,172,34.67a37.93,37.93,0,0,0-4.25-18.32,29.28,29.28,0,0,0-12.1-12.1A37.93,37.93,0,0,0,137.3,0H115.42V55.73h10V8.61h11.63q11.4,0,18.15,7t6.75,19q0,12.57-6.75,20T137.06,62H96a24,24,0,0,0,6.17-16.64A26.47,26.47,0,0,0,98.9,32.23a23.25,23.25,0,0,0-9.08-9.08,27.75,27.75,0,0,0-26.06,0,23.22,23.22,0,0,0-9.07,9.08,26.12,26.12,0,0,0-3.26,13,21.09,21.09,0,0,0,.93,6.34A16,16,0,0,0,55,56.78H65.16a16.87,16.87,0,0,1-4-11.52,16.54,16.54,0,0,1,4.42-11.87,14.76,14.76,0,0,1,11.17-4.65A14.67,14.67,0,0,1,88,33.45a16.74,16.74,0,0,1,4.42,11.93A16.71,16.71,0,0,1,88,57.3,14.64,14.64,0,0,1,76.79,62H40q-7.8,0-7.8-9.2V8.61H54.45V0H0V8.61H22.22V53.87q0,16.76,16.64,16.76H206.18a26.23,26.23,0,0,0,13-3.26,23.25,23.25,0,0,0,9.08-9.08,26.19,26.19,0,0,0,3.25-13,26.22,26.22,0,0,0-3.25-13A23.31,23.31,0,0,0,219.21,23.15Z"/></g></g></svg>